<?xml version="1.0" encoding="UTF-8"?>
<svg id="Layer_2" data-name="Layer 2" xmlns="http://www.w3.org/2000/svg" xmlns:xlink="http://www.w3.org/1999/xlink" viewBox="0 0 123.97 60.62">
  <defs>
    <filter id="drop-shadow-1" filterUnits="userSpaceOnUse">
      <feOffset dx="-7" dy="7"/>
      <feGaussianBlur result="blur" stdDeviation="5"/>
      <feFlood flood-color="#439381" flood-opacity=".75"/>
      <feComposite in2="blur" operator="in"/>
      <feComposite in="SourceGraphic"/>
    </filter>
    <linearGradient id="linear-gradient" x1="61.99" y1="59.62" x2="61.99" y2="1" gradientUnits="userSpaceOnUse">
      <stop offset="0" stop-color="#bf6f00"/>
      <stop offset=".13" stop-color="#e5c500"/>
      <stop offset=".45" stop-color="#e59e03"/>
      <stop offset=".53" stop-color="#ea9502"/>
      <stop offset=".82" stop-color="#f97c00"/>
      <stop offset="1" stop-color="#ff7300"/>
    </linearGradient>
    <filter id="drop-shadow-2" filterUnits="userSpaceOnUse">
      <feOffset dx="-7" dy="7"/>
      <feGaussianBlur result="blur-2" stdDeviation="5"/>
      <feFlood flood-color="#439381" flood-opacity=".75"/>
      <feComposite in2="blur-2" operator="in"/>
      <feComposite in="SourceGraphic"/>
    </filter>
  </defs>
  <g id="main_text" data-name="main text">
    <g id="infinity" style="filter: url(#drop-shadow-1);">
      <path d="m122.97,18.15c0,5.72-1.84,11.38-5.51,16.98-3.68,5.6-8.87,10.21-15.58,13.83-6.71,3.62-14.67,5.42-23.89,5.42-10.27,0-15.4-5.77-15.4-17.32-4.08,3.38-8.66,6.82-13.74,10.32s-10.18,6.42-15.31,8.75c-5.13,2.34-9.97,3.5-14.52,3.5-6.42,0-11.03-1.6-13.83-4.81-2.8-3.21-4.2-7.32-4.2-12.34s1.2-10.12,3.59-14.96c2.39-4.84,5.71-9.16,9.97-12.95,4.26-3.79,9.21-6.79,14.88-9.01,5.66-2.21,11.7-3.33,18.11-3.33,5.25,0,9.86,1.23,13.83,3.67,5.25,3.39,7.93,9.57,8.05,18.55,3.15-4.55,6.94-8.6,11.38-12.16,4.43-3.56,9.04-6.33,13.83-8.31,4.78-1.98,9.21-2.98,13.3-2.98,4.32,0,7.9,1.31,10.76,3.94,2.86,2.62,4.29,7.03,4.29,13.21Zm-62.47,12.08c.12-.93.17-1.78.17-2.54v-2.36c0-6.18-1.34-10.79-4.02-13.83-2.69-3.03-7-4.55-12.95-4.55-4.32,0-8.49.96-12.51,2.89-4.03,1.93-7.61,4.52-10.76,7.79-3.15,3.27-5.63,6.85-7.44,10.76-1.81,3.91-2.71,7.85-2.71,11.81,0,3.27,1.16,5.77,3.5,7.52,2.33,1.75,5.42,2.62,9.27,2.62,6.88,0,13.5-1.92,19.86-5.77,6.36-3.85,12.22-8.63,17.59-14.35Zm52.33-8.92c0-4.2-.91-7.23-2.71-9.1-1.81-1.86-4.17-2.8-7.09-2.8-2.69,0-5.69.79-9.01,2.36-3.33,1.57-6.56,3.71-9.71,6.39l-14.88,14.18c.23,10.97,4.49,16.45,12.78,16.45,3.38,0,6.88-.76,10.5-2.27,3.61-1.51,6.94-3.59,9.97-6.21,3.03-2.62,5.48-5.57,7.35-8.84,1.86-3.27,2.8-6.65,2.8-10.15Z" style="fill: url(#linear-gradient);"/>
    </g>
    <g id="infinity-2" data-name="infinity" style="filter: url(#drop-shadow-2);">
      <path d="m122.97,18.15c0,5.72-1.84,11.38-5.51,16.98-3.68,5.6-8.87,10.21-15.58,13.83-6.71,3.62-14.67,5.42-23.89,5.42-10.27,0-15.4-5.77-15.4-17.32-4.08,3.38-8.66,6.82-13.74,10.32s-10.18,6.42-15.31,8.75c-5.13,2.34-9.97,3.5-14.52,3.5-6.42,0-11.03-1.6-13.83-4.81-2.8-3.21-4.2-7.32-4.2-12.34s1.2-10.12,3.59-14.96c2.39-4.84,5.71-9.16,9.97-12.95,4.26-3.79,9.21-6.79,14.88-9.01,5.66-2.21,11.7-3.33,18.11-3.33,5.25,0,9.86,1.23,13.83,3.67,5.25,3.39,7.93,9.57,8.05,18.55,3.15-4.55,6.94-8.6,11.38-12.16,4.43-3.56,9.04-6.33,13.83-8.31,4.78-1.98,9.21-2.98,13.3-2.98,4.32,0,7.9,1.31,10.76,3.94,2.86,2.62,4.29,7.03,4.29,13.21Z" style="fill: none; stroke: #fbc926; stroke-miterlimit: 10; stroke-width: 2px;"/>
      <path d="m60.5,30.23c.12-.93.17-1.78.17-2.54v-2.36c0-6.18-1.34-10.79-4.02-13.83-2.69-3.03-7-4.55-12.95-4.55-4.32,0-8.49.96-12.51,2.89-4.03,1.93-7.61,4.52-10.76,7.79-3.15,3.27-5.63,6.85-7.44,10.76-1.81,3.91-2.71,7.85-2.71,11.81,0,3.27,1.16,5.77,3.5,7.52,2.33,1.75,5.42,2.62,9.27,2.62,6.88,0,13.5-1.92,19.86-5.77,6.36-3.85,12.22-8.63,17.59-14.35Z" style="fill: none; stroke: #fbc926; stroke-miterlimit: 10; stroke-width: 2px;"/>
      <path d="m112.83,21.3c0-4.2-.91-7.23-2.71-9.1-1.81-1.86-4.17-2.8-7.09-2.8-2.69,0-5.69.79-9.01,2.36-3.33,1.57-6.56,3.71-9.71,6.39l-14.88,14.18c.23,10.97,4.49,16.45,12.78,16.45,3.38,0,6.88-.76,10.5-2.27,3.61-1.51,6.94-3.59,9.97-6.21,3.03-2.62,5.48-5.57,7.35-8.84,1.86-3.27,2.8-6.65,2.8-10.15Z" style="fill: none; stroke: #fbc926; stroke-miterlimit: 10; stroke-width: 2px;"/>
    </g>
  </g>
</svg>